<?xml version="1.0" encoding="UTF-8"?>
<svg viewBox="0 0 154 47" version="1.1" xmlns="http://www.w3.org/2000/svg" xmlns:xlink="http://www.w3.org/1999/xlink">
    <!-- Generator: Sketch 43.1 (39012) - http://www.bohemiancoding.com/sketch -->
    <title>Group 47@2x</title>
    <desc>Created with Sketch.</desc>
    <defs></defs>
    <g id="outofoffice-logo-svg" stroke="none" stroke-width="1" fill-rule="evenodd" fill="#F15A25">
        <g id="outofoffice-logo-svg__group">
            <path d="M14.1664,9.0675 C11.9044,8.8035 7.2104,12.9805 4.7114,20.1305 C2.1564,27.4275 3.7924,34.6165 6.9724,35.1535 C10.0574,35.6695 14.2474,31.0745 16.2414,23.6865 C18.3994,15.6775 16.7034,9.3555 14.1664,9.0675 M19.6224,24.1305 C17.7044,31.2755 13.5524,37.5215 7.2744,36.7855 C3.4904,36.3475 1.3704,33.4935 0.5354,30.0145 C-1.6346,20.9815 4.4134,11.2305 8.7984,8.3825 C11.0544,6.9445 13.2874,6.9015 14.7704,7.8465 C20.5794,8.8745 21.3974,17.5145 19.6224,24.1305" id="Fill-25"></path>
            <path d="M25.6468,32.5987 C22.5848,33.1097 21.7468,29.9917 22.0068,26.9677 C22.2688,23.9447 23.4338,19.2687 25.2638,14.7467 C25.4908,14.1997 25.9248,14.1397 26.3558,14.4397 C27.6258,15.6157 27.8718,17.5757 26.9248,20.3597 C25.9578,23.2387 25.5158,25.1387 25.1148,27.3887 C24.7218,29.6807 25.2158,31.1767 26.2118,31.0277 C27.8968,30.7577 29.5168,27.2287 30.9198,22.9887 C32.5538,18.0207 33.0818,14.7987 34.0008,12.6497 C34.2828,11.9527 34.5588,11.7977 35.0008,12.1397 C35.8198,12.7507 36.6068,14.5357 36.0978,16.9007 C35.6238,19.0337 34.2668,22.7237 33.8108,25.1197 C33.2888,27.8027 33.8848,29.5437 35.3918,29.0917 C37.1528,28.5787 38.6438,25.2607 39.5848,21.8947 C39.7058,21.4617 40.0778,21.3277 40.3378,21.6687 C40.5898,21.9677 40.9068,23.1027 40.5988,24.4327 C39.9388,27.1037 37.8288,29.8977 35.3268,30.4987 C32.5698,31.1607 31.0478,29.6867 30.7968,27.1447 C29.7918,29.4947 28.0628,32.1987 25.6468,32.5987" id="Fill-27"></path>
            <path d="M38.7621,10.2501 C38.1961,9.7581 38.3781,9.4001 39.0251,9.2891 C40.2231,9.0471 41.3901,8.6771 42.5041,8.2741 C43.2591,5.6261 43.9681,3.3481 44.4651,2.2411 C44.7141,1.5991 45.1491,1.5391 45.4831,1.9971 C46.2351,3.0721 46.5711,4.4721 46.0821,6.9221 C47.7261,6.4821 48.5461,7.0931 49.0171,7.5631 C49.4371,8.0011 49.3381,8.3381 48.7021,8.4911 C47.7391,8.5881 46.4541,9.0301 45.4351,9.4551 C44.4631,12.6941 43.0331,17.3891 42.2771,21.3381 C41.6201,24.7711 42.7181,27.2881 44.5211,26.9451 C46.4491,26.5711 48.1441,22.9791 48.9501,19.4221 C49.0811,18.8521 49.5281,18.6551 49.8401,19.2081 C50.2151,19.8361 50.1861,20.6501 49.9961,21.7281 C49.7411,23.0901 47.8371,27.4941 44.4131,28.1821 C41.5941,28.7701 38.5921,26.1701 39.4561,20.8041 C39.8391,18.4701 40.7641,14.4791 41.7831,10.6901 C40.3421,11.0371 39.2131,10.6351 38.7621,10.2501" id="Fill-29"></path>
            <path d="M60.0785,14.8907 C59.7175,14.0127 59.1875,14.3207 59.2435,15.1817 C59.2855,15.9867 59.7985,16.7387 60.3575,17.0557 C60.3735,16.1177 60.2875,15.3837 60.0785,14.8907 M59.7195,17.6617 C59.0105,17.3497 58.0865,16.5157 57.8045,15.4667 C57.1915,16.3077 56.5915,17.4477 56.2525,18.6747 C55.5745,21.1297 55.7765,23.8567 56.6695,24.3057 C57.6255,24.7697 59.1245,23.3537 59.8915,20.3947 C60.1285,19.4937 60.2785,18.6137 60.3425,17.8737 C60.1225,17.8357 59.9245,17.7627 59.7195,17.6617 M62.3135,17.7927 C62.2975,20.3607 61.1915,23.6717 59.2535,24.8917 C58.3075,25.4807 56.8545,25.7087 55.3585,24.4987 C53.7065,23.1467 53.5385,20.5637 54.2735,17.9737 C54.8915,15.7747 56.2345,13.7037 57.9185,13.1777 C58.7885,12.9087 59.3345,13.0487 60.0905,13.6817 C60.9585,14.4087 61.8615,14.4027 62.1835,16.4967 C62.2105,16.7317 62.2585,16.9317 62.2845,17.1657 C62.4555,17.1247 62.6125,17.0277 62.8405,16.9727 C63.0405,16.9247 63.0745,17.0677 62.9945,17.2377 C62.8495,17.5127 62.5925,17.6957 62.3135,17.7927" id="Fill-31"></path>
            <path d="M66.7015,20.1173 C66.4765,19.0553 65.9785,18.2393 65.8005,18.3733 C65.5425,18.5553 65.6485,20.1293 65.7775,20.7913 C65.9685,21.7113 66.3685,22.2483 66.9375,22.2323 C66.9165,21.5133 66.8305,20.7803 66.7015,20.1173 M64.9425,31.0053 C65.7685,31.6813 66.9625,27.2323 66.9655,23.0993 C66.1175,23.2133 65.4585,22.9793 64.9515,22.3773 C64.2645,26.5543 64.0885,30.3363 64.9425,31.0053 M68.2215,20.4163 C68.2965,20.7293 68.3435,21.0503 68.3965,21.3993 C69.3085,20.4263 70.1065,18.7263 70.4925,17.0653 C70.5815,16.6813 70.8595,16.5853 71.0985,16.9503 C71.3445,17.3443 71.3235,18.0123 71.2235,18.7293 C71.1025,19.4823 70.0815,21.5073 68.5135,22.5173 C68.7495,25.5073 68.2555,28.9733 67.2975,31.0133 C66.6145,32.4433 65.9295,32.7283 64.8955,32.1933 C64.0395,31.7643 62.9165,30.8583 62.6475,28.3593 C61.9205,21.8083 65.8555,9.3113 67.8855,3.8173 C68.0305,3.4213 68.4085,3.3603 68.6045,3.6753 C69.1795,4.5623 69.3885,5.8093 68.6625,8.1853 C67.9585,10.4053 66.7645,14.0993 65.9435,17.4643 C67.1095,17.5463 67.7975,18.5273 68.2215,20.4163" id="Fill-33"></path>
            <path d="M88.2152,9.1895 C85.9542,8.9255 81.2602,13.1025 78.7602,20.2525 C76.2052,27.5495 77.8422,34.7385 81.0222,35.2755 C84.1062,35.7915 88.2962,31.1965 90.2902,23.8085 C92.4492,15.7995 90.7522,9.4775 88.2152,9.1895 M93.6722,24.2525 C91.7532,31.3975 87.6012,37.6435 81.3232,36.9075 C77.5402,36.4695 75.4192,33.6155 74.5842,30.1365 C72.4152,21.1035 78.4622,11.3525 82.8482,8.5045 C85.1042,7.0665 87.3362,7.0235 88.8192,7.9685 C94.6282,8.9965 95.4472,17.6365 93.6722,24.2525" id="Fill-35"></path>
            <path d="M101.0228,27.7813 C100.6878,26.2023 99.9488,24.9893 99.6818,25.1873 C99.2988,25.4593 99.4568,27.7993 99.6488,28.7843 C99.9318,30.1513 100.5278,30.9503 101.3748,30.9273 C101.3408,29.8583 101.2138,28.7673 101.0228,27.7813 M98.4068,43.9753 C99.6348,44.9813 101.4108,38.3653 101.4148,32.2183 C100.1548,32.3853 99.1738,32.0383 98.4198,31.1423 C97.3998,37.3543 97.1348,42.9793 98.4068,43.9753 M103.2828,28.2253 C103.3948,28.6923 103.4638,29.1693 103.5438,29.6883 C104.9008,28.2413 106.0878,25.7133 106.6618,23.2423 C106.7938,22.6723 107.2088,22.5283 107.5628,23.0713 C107.9268,23.6563 107.8968,24.6503 107.7498,25.7183 C107.5698,26.8373 106.0488,29.8483 103.7188,31.3503 C104.0688,35.7983 103.3338,40.9533 101.9088,43.9873 C100.8938,46.1143 99.8748,46.5393 98.3368,45.7423 C97.0628,45.1053 95.3938,43.7573 94.9948,40.0403 C93.9108,30.2973 99.7658,11.7103 102.7828,3.5393 C103.0008,2.9483 103.5608,2.8583 103.8538,3.3273 C104.7088,4.6463 105.0188,6.5013 103.9388,10.0353 C102.8918,13.3373 101.1168,18.8323 99.8958,23.8353 C101.6288,23.9573 102.6528,25.4163 103.2828,28.2253" id="Fill-37"></path>
            <path d="M111.3285,25.3067 C110.9945,23.7277 110.2545,22.5147 109.9885,22.7127 C109.6045,22.9847 109.7635,25.3247 109.9545,26.3097 C110.2385,27.6767 110.8335,28.4757 111.6805,28.4527 C111.6475,27.3837 111.5205,26.2927 111.3285,25.3067 M108.7125,41.5007 C109.9405,42.5067 111.7165,35.8907 111.7215,29.7437 C110.4605,29.9107 109.4795,29.5637 108.7255,28.6677 C107.7055,34.8797 107.4415,40.5047 108.7125,41.5007 M113.5885,25.7507 C113.7005,26.2177 113.7695,26.6947 113.8495,27.2137 C115.2075,25.7667 116.3935,23.2387 116.9685,20.7677 C117.0995,20.1977 117.5145,20.0537 117.8685,20.5967 C118.2335,21.1817 118.2025,22.1757 118.0555,23.2437 C117.8755,24.3627 116.3555,27.3737 114.0245,28.8757 C114.3755,33.3237 113.6395,38.4787 112.2145,41.5127 C111.2005,43.6397 110.1805,44.0647 108.6425,43.2677 C107.3685,42.6307 105.6995,41.2827 105.3005,37.5657 C104.2175,27.8227 110.0715,9.2357 113.0895,1.0647 C113.3065,0.4737 113.8675,0.3837 114.1595,0.8527 C115.0145,2.1717 115.3255,4.0267 114.2445,7.5607 C113.1985,10.8627 111.4225,16.3577 110.2015,21.3607 C111.9355,21.4827 112.9585,22.9417 113.5885,25.7507" id="Fill-39"></path>
            <path d="M123.5218,8.8321 C123.1128,9.5581 121.8948,9.7161 120.9938,8.7661 C120.0408,7.7831 119.9468,6.4611 120.4528,5.5761 C120.9578,4.6921 122.3098,4.9061 123.1358,5.9191 C123.9528,6.8901 123.9298,8.1051 123.5218,8.8321 M116.7208,22.1731 C117.0388,18.8221 118.6358,13.1451 119.6758,10.5621 C119.9348,9.9621 120.2018,9.7641 120.6318,10.0641 C121.4318,10.5901 122.2088,12.3321 121.7008,14.6971 C121.2578,16.7771 120.1678,20.0891 119.7878,22.4241 C119.3598,25.1281 119.8418,26.7621 121.1788,26.3521 C123.0668,25.8081 124.7278,22.4481 125.2968,19.2171 C125.4178,18.7841 125.7248,18.7551 125.9758,19.0541 C126.4778,19.6501 126.5648,20.5711 126.3098,21.7541 C125.6688,24.6891 123.4248,27.1121 121.0498,27.6831 C117.8268,28.4571 116.3698,25.9361 116.7208,22.1731" id="Fill-41"></path>
            <path d="M135.933,8.588 C137.251,10.155 136.095,12.811 135.796,15.305 C135.748,15.855 135.61,16.023 134.988,15.859 C133.847,15.594 132.948,14.464 133.083,12.412 C133.183,10.774 134.018,8.645 133.312,8.32 C132.449,7.9 129.919,11.378 128.937,15.696 C127.755,21.049 129.492,24.356 132.003,23.797 C135.577,22.984 137.816,18.858 138.913,15.768 C139.043,15.377 139.415,15.243 139.687,15.627 C139.895,15.936 139.981,17.037 139.535,18.355 C138.523,21.244 135.671,24.127 132.458,24.943 C127.092,26.322 124.005,21.5 125.449,15.367 C126.88,9.371 130.614,6.053 133.04,6.816 C134.348,7.219 135.19,7.735 135.933,8.588" id="Fill-43"></path>
            <path d="M146.5414,9.9884 C147.4704,7.8824 147.8744,5.4514 147.1684,5.1284 C146.1044,4.6204 143.1954,8.0104 142.1694,12.5184 C142.1034,12.8034 142.0374,13.0894 142.0034,13.3214 C144.3974,14.1364 145.6984,11.8954 146.5414,9.9884 M145.3634,20.5894 C148.9244,19.9134 151.2054,15.7764 152.3564,12.5394 C152.4874,12.1494 152.8274,12.0674 153.0884,12.4094 C153.3394,12.7084 153.4974,13.9264 152.9984,15.2124 C151.8394,18.2264 149.0414,20.9624 145.7854,21.7884 C140.4194,23.1674 137.2804,18.3124 138.7244,12.1794 C140.1674,6.0464 143.9634,2.8014 146.3794,3.5224 C147.5924,3.9044 148.5094,4.3574 149.4114,5.1284 C150.4194,5.9624 150.7014,8.6314 149.4384,11.2214 C147.9724,14.2654 145.3954,16.0504 141.8454,14.3454 C141.4254,18.5744 143.0854,21.0024 145.3634,20.5894" id="Fill-45"></path>
        </g>
    </g>
</svg>
