<svg xmlns="http://www.w3.org/2000/svg" width="67" height="22" viewBox="0 0 67 22">
    <g fill="#FFF" fill-rule="evenodd" opacity=".5">
        <path fill-rule="nonzero" d="M43.899 7.234v4.344h1.477v10.13h4.43V7.233H43.9zm15.624 10.672c-1.896-.055-3.404-1.578-3.404-3.437 0-1.86 1.508-3.382 3.404-3.437a3.63 3.63 0 0 1 3.251 1.92l3.693-1.774c-1.56-3.169-5.147-4.86-8.646-4.076-3.498.784-5.98 3.835-5.98 7.354 0 3.518 2.482 6.57 5.98 7.354 3.5.784 7.086-.908 8.646-4.077l-3.693-1.773a3.656 3.656 0 0 1-3.251 1.955v-.01zM47.59 0c-1.63 0-2.952 1.296-2.952 2.894 0 1.599 1.322 2.895 2.952 2.895.786.01 1.544-.291 2.1-.836a2.828 2.828 0 0 0 .854-2.057 2.852 2.852 0 0 0-.86-2.052A2.97 2.97 0 0 0 47.59 0zM35.773 2.893l-3.696 12.302-3.692-12.302h-4.431L21 21.704h4.43l1.478-10.13 2.954 10.13h4.434l2.954-10.13 1.477 10.13h4.43L40.204 2.893h-4.431z"/>
        <path d="M.924 15V6.42h3.372c1.872 0 2.844.768 2.844 2.232V8.7c0 .9-.432 1.56-1.392 1.836 1.116.228 1.716.864 1.716 2.016v.048c0 1.572-1.032 2.4-3.012 2.4H.924zm1.896-1.344h1.332c.96 0 1.392-.432 1.392-1.212v-.048c0-.792-.432-1.2-1.488-1.2H2.82v2.46zm0-3.708h1.164c.936 0 1.308-.336 1.308-1.104v-.048c0-.72-.408-1.044-1.32-1.044H2.82v2.196zM10.896 15h1.956v-3.696l2.676-4.884h-1.884L11.94 9.708 10.2 6.42H8.064l2.832 4.884V15z"/>
    </g>
</svg>
